# xmcd
#
# Track frame offsets:
# 150
# 17680
# 36607
# 50615
# 66645
# 82410
# 98532
# 113442
# 128422
# 145887
# 161792
# 178442
#
# Disc length: 2599 seconds
#
#
# Revision: 0
# Processed by: cddbd v1.5.1PL2 Copyright (c) Steve Scherf et al.
# Submitted via: FreeRIP 2.945 
#
DISCID=ae0a250c
DTITLE=阿吉仔 - 黃金歲月
DYEAR=1009
DGENRE=Pop
TTITLE0=人生的腳步
TTITLE1=放蕩無前途
TTITLE2=若無妳
TTITLE3=漂泊的笑容
TTITLE4=難忘的紗帽山
TTITLE5=探獄情怨
TTITLE6=相思眠
TTITLE7=心愛的你敢知
TTITLE8=後悔的目屎
TTITLE9=涮涮去
TTITLE10=雨夜傷心淚
TTITLE11=命運的吉他
EXTD=黃金歲月
EXTT0=
EXTT1=
EXTT2=
EXTT3=
EXTT4=
EXTT5=
EXTT6=
EXTT7=
EXTT8=
EXTT9=
EXTT10=
EXTT11=
PLAYORDER=
